<svg xmlns="http://www.w3.org/2000/svg" viewBox="0 0 254.046 254.046">
  <g id="Icon_feather-globe" data-name="Icon feather-globe" transform="translate(-1.5 -1.5)">
    <path id="Trazado_7" data-name="Trazado 7" d="M254.046,128.523A125.523,125.523,0,1,1,128.523,3,125.523,125.523,0,0,1,254.046,128.523Z" transform="translate(0 0)" fill="#00c4ec" stroke="#fff" stroke-linecap="round" stroke-linejoin="round" stroke-width="3"/>
    <path id="Trazado_8" data-name="Trazado 8" d="M3,18H254.046" transform="translate(0 110.523)" fill="#00c4ec" stroke="#fff" stroke-linecap="round" stroke-linejoin="round" stroke-width="3"/>
    <path id="Trazado_9" data-name="Trazado 9" d="M62.209,3a192.05,192.05,0,0,1,50.209,125.523A192.05,192.05,0,0,1,62.209,254.046,192.05,192.05,0,0,1,12,128.523,192.05,192.05,0,0,1,62.209,3Z" transform="translate(66.314 0)" fill="#00c4ec" stroke="#fff" stroke-linecap="round" stroke-linejoin="round" stroke-width="3"/>
  </g>
  <path id="Icon_awesome-codepen" data-name="Icon awesome-codepen" d="M180.6,57.422,96.463,1.332a7.993,7.993,0,0,0-8.835,0L3.493,57.422A8.042,8.042,0,0,0,0,64v56.09a8.043,8.043,0,0,0,3.493,6.575l84.136,56.1a7.993,7.993,0,0,0,8.835,0l84.136-56.1a8.043,8.043,0,0,0,3.493-6.575V64a8.043,8.043,0,0,0-3.493-6.574ZM99.956,22.7,161.9,64,134.268,82.488,99.956,59.579Zm-15.82,0v36.88L49.824,82.488,22.19,64ZM15.82,78.79,35.647,92.042,15.82,105.294Zm68.315,82.6-61.946-41.3L49.824,101.6,84.136,124.5Zm7.91-50.646L64.1,92.042l27.943-18.7,27.943,18.7Zm7.91,50.646V124.5L134.268,101.6,161.9,120.087Zm68.315-56.091L148.445,92.042,168.272,78.79Z" transform="translate(34.977 34.977)" fill="#0c9ad9" stroke="#000" stroke-width="1"/>
  <path id="Icon_awesome-pencil-ruler" data-name="Icon awesome-pencil-ruler" d="M19.452,43.367,43.367,19.456l-7.84-7.84L24.566,22.576a1.407,1.407,0,0,1-1.992,0l-1.992-1.992a1.407,1.407,0,0,1,0-1.992L31.542,7.632l-5.978-5.98a5.636,5.636,0,0,0-7.972,0L1.651,17.593a5.638,5.638,0,0,0,0,7.972ZM88.483,22.612a8.537,8.537,0,0,0,0-12.071L80.442,2.5a8.539,8.539,0,0,0-12.075,0L60.19,10.676,80.305,30.791ZM56.168,14.7,3.391,67.469.057,86.561a3.772,3.772,0,0,0,4.37,4.364l19.094-3.348L76.284,34.813ZM89.332,65.42l-5.978-5.978L72.394,70.4a1.407,1.407,0,0,1-1.992,0L68.41,68.41a1.41,1.41,0,0,1,0-1.992L79.371,55.458l-7.844-7.844L47.612,71.526,65.419,89.331a5.636,5.636,0,0,0,7.972,0l15.942-15.94a5.636,5.636,0,0,0,0-7.972Z" transform="translate(81.531 81.532)" fill="#de3636" stroke="#fff" stroke-width="2"/>
</svg>
